<?xml version="1.0" encoding="utf-8"?>
<!-- Generator: Adobe Illustrator 25.2.2, SVG Export Plug-In . SVG Version: 6.00 Build 0)  -->
<svg version="1.1" id="Ebene_1" xmlns="http://www.w3.org/2000/svg" xmlns:xlink="http://www.w3.org/1999/xlink" x="0px" y="0px"
	 viewBox="0 0 418 276.4" style="enable-background:new 0 0 418 276.4;" xml:space="preserve">
<style type="text/css">
	.st0{fill:none;stroke:#1D1D1B;stroke-width:3;stroke-miterlimit:10;}
	.st1{fill:#1D1D1B;}
</style>
<g id="Acronym">
	<path class="st0" d="M417.8,3"/>
	<path class="st0" d="M0,3"/>
	<path d="M180.2,229.6c-5.3,9.6-27,46.7-72.8,46.7C54,276.3,33,235.4,33,194c0-73.6,71.8-133.4,128.7-133.4
		c21.6,0,38.5,11.4,50.8,11.4c6.1,0,9.9-3.8,12.3-8.5l4.4,0.9L209,120.7h-3.8c0.8-6.6,1.2-13.2,1.1-19.8c0-24.8-25.7-36.2-45.2-36.2
		c-63.9,0-93.7,117.6-93.7,163.8c0,31.2,10.2,43.8,41.2,43.8c34.1,0,56.6-25.3,66.4-42.6L180.2,229.6z"/>
	<path d="M143.4,160.9h0.3c4.4-5.8,13.4-9,21-9c16.4,0,26.3,10.9,26.3,26.9v43.4h-14.2v-44.4c0-9.1-4.1-14.1-13.6-14.1
		c-13.9,0-19.7,9.5-19.7,22.5v36h-14.2v-69.1h14.2v7.8L143.4,160.9L143.4,160.9z"/>
	<path d="M219.1,167h28.1v13h-28.1v42.3h-14.2v-93.5H254v13h-34.9V167z"/>
	<path d="M306.9,215.1c-5.3,5.1-12.3,8.1-19.7,8.4c-20.7,0-30.7-16.7-30.7-35.6c0-18.6,9.1-36,29.8-36c7.6,0,15.9,2.5,20.4,8.6h0.3
		v-38.7h14.2v100.4H307L306.9,215.1L306.9,215.1z M306.9,186.9c0-12.3-5.2-23-19-23c-12.7,0-17.2,12.3-17.2,23
		c0,11.6,4.5,24.8,18.2,24.8C302.2,211.7,306.9,198.4,306.9,186.9z"/>
	<path d="M365.5,209.3h16.8v13h-47.8v-13h16.8v-67.5h-14.1v-13h42.2v13h-13.9V209.3z"/>
	<path class="st1" d="M187.5,229.3h14.4l-0.2,0.6h-4l-6.6,18.4c-0.9,2.3-1.4,4.6-1.4,7.1c0,4.2,2.5,6.4,6.6,6.4
		c7,0,10.6-5.8,12.2-10.9l6.5-21h-4.4l0.2-0.6h9.1l-0.2,0.6h-4l-6.8,21.6c-2.4,7.6-7,11.1-14,11.1c-6.7,0-10.5-3.9-10.5-9.1
		c0-2.7,0.6-5.3,1.5-7.8l5.7-15.9h-4.4L187.5,229.3z"/>
	<path class="st1" d="M228.7,229.9h-4.5l0.2-0.6h14.4l-0.2,0.6h-4l-11.3,31.5h8.9c5.5,0,9.3-6.5,10.4-8.4h0.6l-3.2,9h-26.9l0.2-0.6
		h4L228.7,229.9z"/>
	<path class="st1" d="M263.7,229.9h-3.3c-5.2,0-9.2,6.6-10.3,8.4h-0.6l3.2-9.1h28.5l-3.2,9.1h-0.7c0.3-1.4,0.4-2.8,0.4-4.2
		c0-2.4-1.5-4.2-5.2-4.2h-2.8l-11.3,31.5h4.4l-0.2,0.6h-14.4l0.2-0.6h4L263.7,229.9z"/>
	<path class="st1" d="M285.4,229.3h14.4l-0.2,0.6h-4l-6.6,18.4c-0.9,2.3-1.4,4.6-1.4,7.1c0,4.2,2.5,6.4,6.6,6.4
		c7,0,10.6-5.8,12.2-10.9l6.5-21h-4.4l0.2-0.6h9.1l-0.2,0.6h-4l-6.8,21.6c-2.4,7.6-7,11.1-14,11.1c-6.7,0-10.5-3.9-10.5-9.1
		c0-2.7,0.6-5.3,1.5-7.8l5.7-15.9h-4.4L285.4,229.3z"/>
	<path class="st1" d="M326.6,229.9h-4.5l0.3-0.6h11.8c4.5,0,10.6,1.7,10.6,7.1c0,6.1-7.2,7.6-13.1,7.9l-0.1,0.1
		c3.8,0.3,8.6,1.1,8.6,5.7c0,3.1-1.1,5.6-1.1,8.6c0,1.7,0.7,2.8,2.4,2.8c0.4,0,0.8-0.1,1.1-0.2l0.2,0.6c-0.8,0.2-1.6,0.3-2.4,0.2
		c-5.8,0-7.3-1.3-7.3-5c0.1-1.4,0.3-2.8,0.6-4.1c0.3-1.5,0.4-3,0.5-4.5c0-2.3-1.1-4.1-6.3-4.1h-0.5l-6,16.7h4.5l-0.2,0.6h-14.3
		l0.2-0.6h3.9L326.6,229.9z M327.6,244h1.7c1.9,0.2,3.9-0.2,5.6-1.1c1.7-1.1,3.8-3.3,3.8-7.8c0-3.4-2.1-5.1-5.2-5.1h-0.9L327.6,244z
		"/>
	<path class="st1" d="M361,229.9h-4.5l0.2-0.6h25.7l-2.8,7.8H379c0.3-1.1,0.5-2.2,0.6-3.3c0-2.3-1.1-3.9-4.5-3.9H367l-5.1,14.2h2.5
		c4.4,0,6.9-4.7,7.5-5.8h0.6l-4.8,13.4H367c0.4-1.1,0.6-2.2,0.6-3.4c0-2.3-2-3.5-4.7-3.5h-1.3l-5.9,16.6h8.9c5.5,0,9.4-6.6,10.4-8.4
		h0.6l-3.2,9h-26.9l0.2-0.6h4L361,229.9z"/>
</g>
</svg>
